<?xml version="1.0" encoding="utf-8"?>
<!-- Generator: Adobe Illustrator 19.1.0, SVG Export Plug-In . SVG Version: 6.00 Build 0)  -->
<svg version="1.2" baseProfile="tiny" id="图层_1"
	 xmlns="http://www.w3.org/2000/svg" xmlns:xlink="http://www.w3.org/1999/xlink" x="0px" y="0px" viewBox="0 0 980 150"
	 xml:space="preserve">
<g>
	<path fill="#46808A" d="M262.1,39L288,97.8h0.3L314,39h5.2v62.8h-3.4V43.7h-0.3l-25.6,58.2h-3.7l-25.6-58.2h-0.3v58.2h-3.4V39
		H262.1z"/>
	<path fill="#46808A" d="M335.7,39v38.4c0,7.2,1.5,12.7,4.7,16.4c3.3,4,8.5,6.2,15.7,6.2s12.4-2.1,15.8-6.2
		c3.1-3.7,4.7-9.2,4.7-16.4V39h3.4v38.3c0,8.2-1.8,14.4-5.5,18.7c-4,4.7-10,7-18.3,7c-8.2,0-14.3-2.4-18.2-7
		c-3.7-4.4-5.5-10.6-5.5-18.8V39H335.7z"/>
	<path fill="#46808A" d="M415,39c9.7,0,16.9,2.9,21.6,8.9c4.4,5.3,6.6,12.8,6.6,22.5c0,9.5-2.6,17-7.6,22.6
		c-5.3,5.8-12.8,8.8-22.3,8.8h-20.5V39H415z M396.3,98.7H413c8.6,0,15.3-2.6,20-7.7c4.5-5,6.8-11.9,6.8-20.5
		c0-9.1-1.9-15.9-5.6-20.6c-4.2-5.1-10.6-7.7-19.4-7.7h-18.4V98.7z"/>
	<path fill="#46808A" d="M497.2,39v3.2H457v25.4h38.1v3.2H457v27.9h41.6v3.2h-45.1V39H497.2z"/>
	<path fill="#46808A" d="M552.6,39v3.2h-40.1v25.4h38.1v3.2h-38.1v27.9h41.6v3.2h-45.1V39H552.6z"/>
	<path fill="#46808A" d="M586.6,39c9.7,0,16.9,2.9,21.6,8.9c4.4,5.3,6.6,12.8,6.6,22.5c0,9.5-2.6,17-7.6,22.6
		c-5.3,5.8-12.8,8.8-22.3,8.8h-20.5V39H586.6z M567.9,98.7h16.7c8.6,0,15.3-2.6,20-7.7c4.5-5,6.8-11.9,6.8-20.5
		c0-9.1-1.9-15.9-5.6-20.6c-4.2-5.1-10.6-7.7-19.4-7.7h-18.4V98.7z"/>
	<path fill="#46808A" d="M668.8,39v3.2h-40.1v25.4h38.1v3.2h-38.1v27.9h41.6v3.2h-45.1V39H668.8z"/>
	<path fill="#46808A" d="M724.2,39v3.2h-40.1v25.4h38.1v3.2h-38.1v27.9h41.6v3.2h-45.1V39H724.2z"/>
</g>
<g>
</g>
<g>
</g>
<g>
</g>
<g>
</g>
<g>
</g>
<g>
</g>
</svg>
